<svg width="20px" height="19px" viewBox="0 0 20 19" version="1.1" xmlns="http://www.w3.org/2000/svg" xmlns:xlink="http://www.w3.org/1999/xlink">
    <g id="FILTER" stroke="none" stroke-width="1" fill="none" fill-rule="evenodd">
        <g id="Icons" transform="translate(-527.000000, -569.000000)">
            <g id="Icon-filter" transform="translate(525.000000, 566.000000)">
                <path fill="#999999"  d="M17.27735,16.16 C18.4333871,16.16 19.4483427,16.9283757 19.7613,18.0404831 L19.7613,18.0404831 L21.035,18.0404831 C21.4243607,18.0404831 21.7399999,18.355906 21.7399999,18.745 C21.7399999,19.1340939 21.4243607,19.4495168 21.035,19.4495168 L21.035,19.4495168 L19.7566,19.4495168 C19.4436427,20.5616242 18.4286871,21.33 17.27265,21.33 C16.1166128,21.33 15.1016572,20.5616242 14.7887,19.4495168 L14.7887,19.4495168 L2.705,19.4495168 C2.31563925,19.4495168 2,19.1340939 2,18.745 C2,18.355906 2.31563925,18.0404831 2.705,18.0404831 L2.705,18.0404831 L14.7934,18.0404831 C15.1063572,16.9283757 16.1213128,16.16 17.27735,16.16 Z M17.275,17.5708052 C16.6260654,17.5708052 16.1,18.0965101 16.1,18.745 C16.1,19.3934898 16.6260654,19.9191948 17.275,19.9191948 C17.9239345,19.9191948 18.45,19.3934898 18.45,18.745 C18.45,18.0965101 17.9239345,17.5708052 17.275,17.5708052 Z M11.87,10.05 C12.9357147,10.05 13.8917841,10.705727 14.2764,11.7004465 L14.2764,11.7004465 L21.035,11.7004465 C21.4243607,11.7004465 21.7399999,12.016349 21.7399999,12.4060345 C21.7399999,12.79572 21.4243607,13.1116225 21.035,13.1116225 L21.035,13.1116225 L14.4127,13.1116225 C14.182638,14.3343451 13.1155268,15.22 11.87235,15.22 C10.6291732,15.22 9.56206195,14.3343451 9.33199998,13.1116225 L9.33199998,13.1116225 L2.705,13.1116225 C2.31563925,13.1116225 2,12.79572 2,12.4060345 C2,12.016349 2.31563925,11.7004465 2.705,11.7004465 L2.705,11.7004465 L9.46359998,11.7004465 C9.84821582,10.705727 10.8042853,10.05 11.87,10.05 Z M11.87,11.4652505 C11.2210654,11.4652505 10.695,11.9917547 10.695,12.6412305 C10.695,13.2907063 11.2210654,13.8172104 11.87,13.8172104 C12.5189346,13.8172104 13.045,13.2907063 13.045,12.6412305 C13.045,11.9917547 12.5189346,11.4652505 11.87,11.4652505 Z M6.46734999,3 C7.62338711,3 8.63834274,3.76837574 8.95129998,4.88048311 L8.95129998,4.88048311 L21.035,4.88048311 C21.4243607,4.88048311 21.7399999,5.19590606 21.7399999,5.58499999 C21.7399999,5.97409393 21.4243607,6.28951688 21.035,6.28951688 L21.035,6.28951688 L8.94659998,6.28951688 C8.63364274,7.40162424 7.61868711,8.16999999 6.46264999,8.16999999 C5.30661287,8.16999999 4.29165724,7.40162424 3.97869999,6.28951688 L3.97869999,6.28951688 L2.705,6.28951688 C2.31563925,6.28951688 2,5.97409393 2,5.58499999 C2,5.19590606 2.31563925,4.88048311 2.705,4.88048311 L2.705,4.88048311 L3.98339999,4.88048311 C4.29635724,3.76837574 5.31131287,3 6.46734999,3 Z M6.46499999,4.41080518 C5.81606541,4.41080518 5.28999999,4.93651011 5.28999999,5.58499999 C5.28999999,6.23348988 5.81606541,6.7591948 6.46499999,6.7591948 C7.11393457,6.7591948 7.63999999,6.23348988 7.63999999,5.58499999 C7.63999999,4.93651011 7.11393457,4.41080518 6.46499999,4.41080518 Z"></path>
            </g>
        </g>
    </g>
</svg>
