<svg width="16px" height="12px" viewBox="0 0 16 12" version="1.1" xmlns="http://www.w3.org/2000/svg" xmlns:xlink="http://www.w3.org/1999/xlink">
    <defs>
        <path d="M12.3455037,0.2082037 C12.6232518,-0.0694605257 13.0735024,-0.0693925379 13.3511666,0.208355556 C16.4048209,3.26293217 16.4048209,8.21440116 13.3511666,11.2689778 C13.0735024,11.5467259 12.6232518,11.5467939 12.3455037,11.2691296 C12.0677556,10.9914654 12.0676876,10.5412148 12.3453518,10.2634667 C14.8437962,7.76426762 14.8437962,3.71306572 12.3453518,1.21386667 C12.0676876,0.936118573 12.0677556,0.485867927 12.3455037,0.2082037 Z M2.2902407,0.208355556 C2.56790493,-0.0693925379 3.01815558,-0.0694605257 3.29590367,0.2082037 C3.57365176,0.485867927 3.57371975,0.936118573 3.29605553,1.21386667 C0.797611121,3.71306572 0.797611121,7.76426762 3.29605553,10.2634667 C3.57371975,10.5412148 3.57365176,10.9914654 3.29590367,11.2691296 C3.01815558,11.5467939 2.56790493,11.5467259 2.2902407,11.2689778 C-0.763413568,8.21440116 -0.763413568,3.26293217 2.2902407,0.208355556 Z M10.3327037,2.22100384 C10.6102553,1.94314325 11.0605059,1.9428928 11.3383665,2.22044444 C12.2730789,3.15411755 12.7982823,4.42107397 12.7982823,5.74222222 C12.7982823,7.06337048 12.2730789,8.3303269 11.3383665,9.264 C11.0605059,9.54155165 10.6102553,9.54130119 10.3327037,9.2634406 C10.055152,8.98558001 10.0554025,8.53532942 10.3332631,8.25777778 C11.0009148,7.59086842 11.3760601,6.68589955 11.3760601,5.74222222 C11.3760601,4.7985449 11.0009148,3.89357603 10.3332631,3.22666667 C10.0554025,2.94911502 10.055152,2.49886444 10.3327037,2.22100384 Z M4.30304085,2.21333333 C4.58090144,1.93578169 5.03115203,1.93603214 5.30870367,2.21389273 C5.58625532,2.49175333 5.58600487,2.94200391 5.30814427,3.21955556 C4.64049256,3.88646491 4.26534727,4.79143378 4.26534727,5.73511111 C4.26534727,6.67878844 4.64049256,7.58375731 5.30814427,8.25066667 C5.58600487,8.52821831 5.58625532,8.97846889 5.30870367,9.25632949 C5.03115203,9.53419008 4.58090144,9.53444053 4.30304085,9.25688889 C3.36832846,8.32321579 2.84312505,7.05625937 2.84312505,5.73511111 C2.84312505,4.41396285 3.36832846,3.14700644 4.30304085,2.21333333 Z M7.82070367,3.60533333 C8.99891114,3.60533333 9.954037,4.5604592 9.954037,5.73866667 C9.954037,6.91687413 8.99891114,7.872 7.82070367,7.872 C6.6424962,7.872 5.68737034,6.91687413 5.68737034,5.73866667 C5.68737034,4.5604592 6.6424962,3.60533333 7.82070367,3.60533333 Z M7.82070367,5.02755556 C7.42796785,5.02755556 7.10959256,5.34593084 7.10959256,5.73866667 C7.10959256,6.13140249 7.42796785,6.44977778 7.82070367,6.44977778 C8.21343949,6.44977778 8.53181478,6.13140249 8.53181478,5.73866667 C8.53181478,5.34593084 8.21343949,5.02755556 7.82070367,5.02755556 Z" id="path-1"></path>
    </defs>
    <g id="DESIGN-SYSTEM" stroke="none" stroke-width="1" fill="none" fill-rule="evenodd">
        <g id="Icons" transform="translate(-128.000000, -321.000000)">
            <g id="Card-icon-variations" transform="translate(127.000000, 193.000000)">
                <g id="Group" transform="translate(1.000000, 126.000000)">
                    <g id="Icon-podcast" transform="translate(0.000000, 2.000000)">
                        <mask id="mask-2" fill="white">
                            <use xlink:href="#path-1"></use>
                        </mask>
                        <use fill="#999999" xlink:href="#path-1"></use>
                    </g>
                </g>
            </g>
        </g>
    </g>
</svg>
