<?xml version="1.0" encoding="UTF-8"?>
<svg width="18px" height="20px" viewBox="0 0 18 20" version="1.1" xmlns="http://www.w3.org/2000/svg" xmlns:xlink="http://www.w3.org/1999/xlink">
    <title>Icon edit</title>
    <defs>
        <path d="M13,2 L13,3.36363636 L5.35,3.36363636 L5.35,20.6363636 L18.85,20.6363636 L18.85,12 L20.2,12 L20.2,20.6363636 C20.2,21.3894792 19.5955844,22 18.85,22 L18.85,22 L5.35,22 C4.60441559,22 4,21.3894792 4,20.6363636 L4,20.6363636 L4,3.36363636 C4,2.6105208 4.60441559,2 5.35,2 L5.35,2 L13,2 Z M18.6125975,3.31944962 C19.1608034,2.77230467 20.0488979,2.77230467 20.5971038,3.31944962 L20.5971038,3.31944962 L21.5893569,4.31101559 C22.136881,4.86351905 22.136881,5.75099849 21.5893569,6.29882475 C21.5893569,6.29882475 13.9181169,14.2126438 13.4500729,14.3342509 L13.4500729,14.3342509 L12.0459411,14.6850408 C11.5671186,14.8051218 11.0603683,14.6651029 10.7112906,14.316267 C10.3622129,13.967431 10.222097,13.4610317 10.3422612,12.9825407 L10.3422612,12.9825407 L10.6932942,11.5793813 C10.7474659,11.360679 12.4488602,9.57408879 14.26066,7.71823425 L14.696825,7.27226658 C15.9341728,6.00927155 17.1657222,4.76968576 17.9082488,4.02472441 L18.2530083,3.67913331 C18.2856484,3.64644428 18.3163013,3.61575449 18.3448687,3.58715986 Z M19.6048506,4.31569279 L13.0147921,10.9011876 L13.0475551,10.9292508 L14.0070452,11.8880764 L20.5971038,5.30725877 L19.6048506,4.31569279 Z" id="path-1"></path>
    </defs>
    <g id="DESIGN-SYSTEM" stroke="none" stroke-width="1" fill="none" fill-rule="evenodd">
        <g id="Icons" transform="translate(-529.000000, -461.000000)">
            <g id="Icon-edit" transform="translate(525.000000, 459.000000)">
                <mask id="mask-2" fill="white">
                    <use xlink:href="#path-1"></use>
                </mask>
                <use id="Combined-Shape" fill="#000000" xlink:href="#path-1"></use>
                <g id="Group" mask="url(#mask-2)" fill="#999999">
                    <g id="COLOR/-black">
                        <rect id="Rectangle-2-Copy-3" x="0" y="0" width="24" height="24"></rect>
                    </g>
                </g>
            </g>
        </g>
    </g>
</svg>