<?xml version="1.0" encoding="UTF-8"?>
<svg width="15px" height="18px" viewBox="0 0 15 18" version="1.1" xmlns="http://www.w3.org/2000/svg" xmlns:xlink="http://www.w3.org/1999/xlink">
    <title>Icon bookmark</title>
    <defs>
        <path d="M18.6764706,4.2857924 L18.6764706,19.7153011 L12.5,13.7149366 L6.32352941,19.7153011 L6.32352941,4.2857924 L18.6764706,4.2857924 L18.6764706,4.2857924 Z M18.6764706,3 L6.32352941,3 C5.5925643,3 5,3.57566886 5,4.2857924 L5,19.7153011 C5.00047053,20.2350041 5.32293244,20.703331 5.8171938,20.9021509 C6.31145516,21.1009708 6.88031738,20.9911849 7.25882353,20.6239278 L12.5,15.4293265 L17.7411765,20.6239278 C18.1196826,20.9911849 18.6885448,21.1009708 19.1828062,20.9021509 C19.6770676,20.703331 19.9995295,20.2350041 20,19.7153011 L20,4.2857924 C20,3.57566886 19.4074357,3 18.6764706,3 Z" id="path-1"></path>
    </defs>
    <g id="DESIGN-SYSTEM" stroke="none" stroke-width="1" fill="none" fill-rule="evenodd">
        <g id="Icons" transform="translate(-529.000000, -246.000000)">
            <g id="Icon-bookmark" transform="translate(524.000000, 243.000000)">
                <mask id="mask-2" fill="white">
                    <use xlink:href="#path-1"></use>
                </mask>
                <use id="Shape" fill="#000000" xlink:href="#path-1"></use>
                <g id="Group" mask="url(#mask-2)" fill="#999999">
                    <g id="COLOR/-black">
                        <rect id="Rectangle-2-Copy-3" x="0" y="0" width="24" height="24"></rect>
                    </g>
                </g>
            </g>
        </g>
    </g>
</svg>