<?xml version="1.0" encoding="UTF-8"?>
<svg width="18px" height="18px" viewBox="0 0 18 18" version="1.1" xmlns="http://www.w3.org/2000/svg" xmlns:xlink="http://www.w3.org/1999/xlink">
    <title>Icon close</title>
    <defs>
        <path d="M13.3970418,12.0207476 L20.7710632,4.50140307 C21.0883131,4.15531665 21.074161,3.62004788 20.7390666,3.29120973 C20.4039722,2.96237157 19.8685435,2.95832018 19.5285116,3.2820499 L12.1661028,10.7897815 L4.50176564,3.27043701 C4.282343,3.03995469 3.95468768,2.94749371 3.64715168,3.02927369 C3.33961568,3.11105367 3.10116239,3.35405426 3.02520081,3.66308517 C2.94923924,3.97211607 3.04786335,4.29797588 3.28243927,4.51301595 L10.9351638,12.0207476 L3.28243927,19.5284792 C2.95871667,19.8685186 2.96276797,20.4039591 3.2915989,20.7390609 C3.62042983,21.0741626 4.15568683,21.088315 4.50176564,20.7710582 L12.1661028,13.2517137 L19.5285116,20.7594453 C19.8685435,21.083175 20.4039722,21.0791236 20.7390666,20.7502855 C21.074161,20.4214473 21.0883131,19.8861785 20.7710632,19.5400921 L13.3970418,12.0207476 Z" id="path-1"></path>
    </defs>
    <g id="DESIGN-SYSTEM" stroke="none" stroke-width="1" fill="none" fill-rule="evenodd">
        <g id="Icons" transform="translate(-527.000000, -425.000000)">
            <g id="Icon-close" transform="translate(524.000000, 422.000000)">
                <mask id="mask-2" fill="white">
                    <use xlink:href="#path-1"></use>
                </mask>
                <use id="Close" fill="#000000" xlink:href="#path-1"></use>
                <g id="Group" mask="url(#mask-2)" fill="#999999">
                    <g id="COLOR/-black">
                        <rect id="Rectangle-2" x="0" y="0" width="24" height="24"></rect>
                    </g>
                </g>
            </g>
        </g>
    </g>
</svg>